<svg width="36" height="36" viewBox="0 0 36 36" fill="none" xmlns="http://www.w3.org/2000/svg">
<path d="M25.7629 12.9957C28.0779 14.6564 30.9139 15.6336 33.9769 15.6336V9.7184C33.3973 9.71853 32.8191 9.65786 32.2519 9.53728V14.1934C29.1891 14.1934 26.3535 13.2162 24.0378 11.5556V23.6268C24.0378 29.6654 19.16 34.5604 13.1432 34.5604C10.8982 34.5604 8.8115 33.8792 7.07812 32.7111C9.05649 34.7411 11.8155 36.0005 14.8678 36.0005C20.885 36.0005 25.7631 31.1055 25.7631 25.0666V12.9957H25.7629ZM27.8909 7.02798C26.7077 5.73083 25.9309 4.0545 25.7629 2.20125V1.44043H24.1282C24.5396 3.79591 25.9431 5.80829 27.8909 7.02798ZM10.8838 28.0772C10.2227 27.2074 9.86553 26.1434 9.86713 25.0494C9.86713 22.2875 12.0982 20.0482 14.8508 20.0482C15.3638 20.048 15.8737 20.1269 16.3626 20.2825V14.2351C15.7913 14.1566 15.2147 14.1232 14.6383 14.1354V18.8424C14.1491 18.6868 13.6389 18.6077 13.1258 18.6082C10.3732 18.6082 8.14225 20.8473 8.14225 23.6095C8.14225 25.5626 9.25743 27.2535 10.8838 28.0772Z" fill="black"/>
<path d="M24.0414 11.5555C26.357 13.2161 29.1927 14.1933 32.2555 14.1933V9.53716C30.5458 9.1717 29.0324 8.27509 27.8944 7.02798C25.9466 5.80817 24.5432 3.79579 24.1317 1.44043H19.8378V25.0664C19.8281 27.8207 17.6008 30.0509 14.8541 30.0509C13.2356 30.0509 11.7976 29.2766 10.8869 28.0772C9.26074 27.2535 8.14556 25.5625 8.14556 23.6096C8.14556 20.8477 10.3765 18.6083 13.1291 18.6083C13.6565 18.6083 14.1648 18.6907 14.6416 18.8426V14.1356C8.73053 14.2581 3.97656 19.1052 3.97656 25.0665C3.97656 28.0424 5.16041 30.7401 7.0818 32.7112C8.81518 33.8792 10.9018 34.5605 13.1468 34.5605C19.1638 34.5605 24.0415 29.6653 24.0415 23.6268V11.5555H24.0414Z" fill="#111928"/>
<path d="M32.2538 9.5367V8.27773C30.7121 8.28007 29.2007 7.84678 27.8927 7.0274C29.0506 8.29959 30.5753 9.1768 32.2538 9.5367ZM24.13 1.43998C24.0908 1.21487 24.0606 0.988276 24.0397 0.760821V0H18.111V23.6262C18.1016 26.3801 15.8744 28.6103 13.1275 28.6103C12.321 28.6103 11.5596 28.4182 10.8853 28.0769C11.7959 29.2762 13.2339 30.0503 14.8525 30.0503C17.5989 30.0503 19.8266 27.8204 19.8362 25.0661V1.43998H24.13ZM14.6402 14.1351V12.7948C14.1448 12.7269 13.6454 12.6928 13.1453 12.693C7.12787 12.6929 2.25 17.5881 2.25 23.6262C2.25 27.4118 4.16709 30.748 7.08025 32.7105C5.15886 30.7395 3.97501 28.0416 3.97501 25.0659C3.97501 19.1048 8.72885 14.2577 14.6402 14.1351Z" fill="#B3B9B9"/>
</svg>
