<svg width="31" height="29" viewBox="0 0 31 29" fill="none" xmlns="http://www.w3.org/2000/svg">
<path d="M19.8765 24.895C21.1204 25.2562 22.4093 25.4388 23.7046 25.4375C25.7877 25.4405 27.8437 24.9656 29.7144 24.0492C29.7697 22.7421 29.3974 21.4526 28.6539 20.3761C27.9103 19.2996 26.8362 18.4949 25.5942 18.0839C24.3521 17.6728 23.01 17.6779 21.7711 18.0983C20.5322 18.5187 19.4641 19.3315 18.7288 20.4135M19.8765 24.895V24.8906C19.8765 23.2675 19.4594 21.7406 18.7288 20.4135M19.8765 24.895V25.0496C17.0699 26.7399 13.8544 27.6305 10.5781 27.625C7.17875 27.625 3.99813 26.6844 1.28271 25.0496L1.28125 24.8906C1.28013 22.8263 1.9661 20.8203 3.23102 19.1889C4.49593 17.5575 6.26784 16.3935 8.26738 15.8805C10.2669 15.3674 12.3804 15.5344 14.2745 16.3551C16.1687 17.1759 17.7358 18.6037 18.7288 20.4135M15.5015 6.29688C15.5015 7.60224 14.9829 8.85414 14.0599 9.77717C13.1368 10.7002 11.8849 11.2188 10.5796 11.2188C9.27422 11.2188 8.02232 10.7002 7.09929 9.77717C6.17626 8.85414 5.65771 7.60224 5.65771 6.29688C5.65771 4.99151 6.17626 3.73961 7.09929 2.81658C8.02232 1.89355 9.27422 1.375 10.5796 1.375C11.8849 1.375 13.1368 1.89355 14.0599 2.81658C14.9829 3.73961 15.5015 4.99151 15.5015 6.29688ZM27.5327 9.57813C27.5327 10.5934 27.1294 11.5671 26.4115 12.285C25.6936 13.0029 24.7199 13.4063 23.7046 13.4063C22.6893 13.4063 21.7156 13.0029 20.9977 12.285C20.2798 11.5671 19.8765 10.5934 19.8765 9.57813C19.8765 8.56284 20.2798 7.58914 20.9977 6.87123C21.7156 6.15332 22.6893 5.75 23.7046 5.75C24.7199 5.75 25.6936 6.15332 26.4115 6.87123C27.1294 7.58914 27.5327 8.56284 27.5327 9.57813Z" stroke="white" stroke-width="1.5" stroke-linecap="round" stroke-linejoin="round"/>
</svg>
